<svg id="Layer_1" enable-background="new 0 0 510 510" height="512" viewBox="0 0 510 510" width="512" xmlns="http://www.w3.org/2000/svg"><g><path d="m142.5 420c0-8.272-6.729-15-15-15-10.492 0-19.508 0-30 0v30h30c8.271 0 15-6.728 15-15z"/><path d="m127.5 360c0-8.272-6.729-15-15-15h-15v30h15c8.271 0 15-6.728 15-15z"/><path d="m0 510h240v-240h-240zm67.5-195h45c34.077-.333 56.199 37.779 39.186 67.082 37.442 24.1 20.923 82.513-24.186 82.918h-60c0-6.641 0-143.354 0-150z"/><path d="m270 270v240h240v-240zm120 165c16.542 0 30-13.458 30-30h30c-3.305 79.618-116.724 79.556-120 0v-30c3.305-79.618 116.724-79.556 120 0h-30c-1.653-39.809-58.362-39.778-60 0v30c0 16.542 13.458 30 30 30z"/><path d="m250.682 75.047-15.578 45h39.792l-15.577-45z"/><path d="m382.5 0h-255v240h255zm-81.675 194.954-15.825-45.718v.811h-60v-.811l-15.825 45.717-28.35-9.813 48.493-140.093h51.362l48.494 140.093z"/></g></svg>