<svg version="1.0" xmlns="http://www.w3.org/2000/svg"
 width="2481.000000pt" height="3508.000000pt" viewBox="0 0 2481.000000 3508.000000"
 preserveAspectRatio="xMidYMid meet">

<g transform="translate(0.000000,3508.000000) scale(0.100000,-0.100000)"
fill="#000000" stroke="none">
<path d="M13257 23943 c-11 -11 -8 -48 5 -61 9 -9 145 -12 549 -12 584 0 569
-1 555 55 l-6 25 -549 0 c-301 0 -551 -3 -554 -7z"/>
<path d="M13396 23607 c-24 -17 -14 -53 17 -61 40 -11 777 -7 798 4 21 12 25
40 7 58 -18 18 -797 17 -822 -1z"/>
<path d="M13459 23244 c-9 -11 -10 -20 -2 -32 9 -15 43 -17 339 -17 l329 0 0
30 0 30 -326 3 c-289 2 -328 0 -340 -14z"/>
</g>
</svg>
