
<svg version="1.0" xmlns="http://www.w3.org/2000/svg"
 width="2213.000000pt" height="1508.000000pt" viewBox="0 0 2213.000000 1508.000000"
 preserveAspectRatio="xMidYMid meet">

<g transform="translate(0.000000,1508.000000) scale(0.100000,-0.100000)"
fill="#000000" stroke="none">
<path d="M749 15070 c-308 -30 -581 -243 -689 -537 -114 -313 -29 -656 218
-884 104 -95 202 -149 358 -196 56 -17 504 -18 10389 -21 7259 -2 10351 1
10400 8 267 41 498 211 619 456 60 121 79 207 79 359 0 112 -4 142 -27 218
-89 297 -311 508 -613 584 -64 16 -676 17 -10363 19 -5662 1 -10329 -2 -10371
-6z"/>
<path d="M3275 8465 c-236 -43 -445 -210 -538 -431 -85 -201 -71 -434 38 -631
24 -43 70 -100 125 -155 73 -72 102 -93 181 -131 52 -25 128 -53 169 -61 68
-15 750 -16 7825 -14 l7750 3 80 27 c385 131 589 538 460 919 -74 220 -260
393 -500 466 -58 17 -356 18 -7790 20 -6234 1 -7744 -1 -7800 -12z"/>
<path d="M4646 1454 c-138 -30 -253 -92 -359 -192 -248 -237 -295 -607 -116
-909 19 -31 66 -88 104 -128 122 -125 273 -196 452 -215 67 -7 2023 -10 6103
-8 l6005 3 78 22 c132 38 231 96 327 193 143 143 209 288 218 481 16 340 -187
628 -523 741 l-70 23 -6075 2 c-5348 1 -6083 0 -6144 -13z"/>
</g>
</svg>
